<svg xmlns="http://www.w3.org/2000/svg" xmlns:xlink="http://www.w3.org/1999/xlink" width="500" zoomAndPan="magnify" viewBox="0 0 375 374.999991" height="500" preserveAspectRatio="xMidYMid meet" version="1.0"><defs><g/></defs><g fill="#5e17eb" fill-opacity="0.4"><g transform="translate(77.819226, 242.008402)"><g><path d="M 85.324219 0 C 86.117188 0 86.75 -0.316406 87.226562 -1.109375 C 87.542969 -1.898438 87.542969 -2.691406 87.226562 -3.324219 C 86.75 -3.957031 47.492188 -67.753906 42.742188 -77.25 C 40.84375 -80.894531 41.316406 -85.484375 42.109375 -87.859375 C 43.058594 -91.023438 54.457031 -109.546875 62.371094 -122.050781 L 81.367188 -122.050781 L 55.40625 -76.460938 C 54.773438 -75.351562 55.089844 -73.925781 56.355469 -73.292969 C 57.464844 -72.660156 58.886719 -72.976562 59.523438 -74.085938 L 87.226562 -123.160156 C 87.542969 -123.792969 87.542969 -124.742188 87.226562 -125.375 C 86.75 -126.007812 86.117188 -126.640625 85.324219 -126.640625 L 61.105469 -126.640625 C 60.3125 -126.640625 59.523438 -126.167969 59.207031 -125.535156 C 57.148438 -122.367188 39.417969 -94.191406 37.835938 -89.28125 C 36.882812 -86.589844 36.09375 -80.417969 38.625 -75.195312 C 42.898438 -66.804688 72.820312 -18.203125 81.210938 -4.433594 L 60.945312 -4.433594 C 56.988281 -10.765625 35.617188 -44.007812 31.820312 -50.183594 C 28.652344 -56.355469 28.019531 -62.371094 28.019531 -69.496094 L 28.019531 -124.265625 C 28.019531 -125.535156 27.070312 -126.640625 25.804688 -126.640625 L 2.214844 -126.640625 C 0.949219 -126.640625 0 -125.535156 0 -124.265625 L 0 -2.214844 C 0 -0.949219 0.949219 0 2.214844 0 L 25.804688 0 C 27.070312 0 28.019531 -0.949219 28.019531 -2.214844 L 28.019531 -28.96875 C 28.019531 -30.234375 27.070312 -31.027344 25.804688 -31.027344 C 24.535156 -31.027344 23.429688 -30.234375 23.429688 -28.96875 L 23.429688 -4.433594 L 4.433594 -4.433594 L 4.433594 -122.050781 L 23.429688 -122.050781 L 23.429688 -69.496094 C 23.429688 -62.6875 24.0625 -55.40625 27.859375 -47.964844 C 32.292969 -40.84375 56.988281 -2.53125 57.9375 -0.949219 C 58.253906 -0.316406 59.046875 0 59.839844 0 Z M 85.324219 0 "/></g></g></g><g fill="#5e17eb" fill-opacity="0.4"><g transform="translate(170.581955, 242.008402)"><g><path d="M 124.109375 -125.691406 C 123.792969 -126.167969 123.160156 -126.640625 122.527344 -126.640625 L 99.890625 -126.640625 C 98.78125 -126.640625 97.671875 -125.691406 97.515625 -124.742188 L 85.800781 -60.3125 L 75.351562 -124.742188 C 75.351562 -126.007812 74.085938 -126.640625 72.820312 -126.640625 C 71.554688 -126.484375 70.917969 -125.21875 70.917969 -123.949219 L 83.425781 -46.539062 C 83.582031 -45.433594 84.535156 -44.640625 85.640625 -44.640625 C 86.75 -44.640625 87.699219 -45.589844 87.859375 -46.539062 L 101.789062 -122.050781 L 119.675781 -122.050781 L 95.296875 -4.433594 L 87.066406 -4.433594 C 83.582031 -4.433594 78.519531 -6.015625 75.511719 -19.3125 L 54.457031 -124.742188 C 54.457031 -125.691406 53.347656 -126.640625 52.238281 -126.640625 C 51.132812 -126.640625 50.183594 -125.851562 50.023438 -124.742188 L 39.257812 -59.996094 L 27.070312 -124.742188 C 26.910156 -125.691406 25.960938 -126.640625 24.851562 -126.640625 L 2.214844 -126.640625 C 1.582031 -126.640625 0.792969 -126.167969 0.476562 -125.691406 C 0 -125.21875 -0.160156 -124.425781 0 -123.792969 L 25.644531 -1.742188 C 25.960938 -0.632812 26.910156 0 27.859375 0 L 38.46875 0 C 46.222656 0 51.132812 -5.699219 53.824219 -18.363281 L 56.988281 -37.199219 C 56.988281 -38.46875 56.355469 -39.734375 55.089844 -39.890625 C 53.824219 -39.890625 52.554688 -39.257812 52.554688 -37.992188 L 49.390625 -19.3125 C 46.539062 -6.171875 41.949219 -4.433594 38.46875 -4.433594 L 29.761719 -4.433594 L 5.066406 -122.050781 L 22.953125 -122.050781 L 37.199219 -46.539062 C 37.359375 -45.589844 38.308594 -44.640625 39.417969 -44.640625 C 40.527344 -44.640625 41.632812 -45.433594 41.792969 -46.539062 L 52.554688 -111.601562 L 71.078125 -18.363281 C 73.769531 -6.332031 78.519531 -0.316406 86.117188 0 L 97.199219 0 C 98.148438 0 99.097656 -0.632812 99.414062 -1.742188 L 124.742188 -123.949219 C 124.742188 -124.585938 124.585938 -125.21875 124.109375 -125.691406 Z M 124.109375 -125.691406 "/></g></g></g><g fill="#5e17eb" fill-opacity="1"><g transform="translate(70.822706, 235.011884)"><g><path d="M 85.324219 0 C 86.117188 0 86.75 -0.316406 87.226562 -1.109375 C 87.542969 -1.898438 87.542969 -2.691406 87.226562 -3.324219 C 86.75 -3.957031 47.492188 -67.753906 42.742188 -77.25 C 40.84375 -80.894531 41.316406 -85.484375 42.109375 -87.859375 C 43.058594 -91.023438 54.457031 -109.546875 62.371094 -122.050781 L 81.367188 -122.050781 L 55.40625 -76.460938 C 54.773438 -75.351562 55.089844 -73.925781 56.355469 -73.292969 C 57.464844 -72.660156 58.886719 -72.976562 59.523438 -74.085938 L 87.226562 -123.160156 C 87.542969 -123.792969 87.542969 -124.742188 87.226562 -125.375 C 86.75 -126.007812 86.117188 -126.640625 85.324219 -126.640625 L 61.105469 -126.640625 C 60.3125 -126.640625 59.523438 -126.167969 59.207031 -125.535156 C 57.148438 -122.367188 39.417969 -94.191406 37.835938 -89.28125 C 36.882812 -86.589844 36.09375 -80.417969 38.625 -75.195312 C 42.898438 -66.804688 72.820312 -18.203125 81.210938 -4.433594 L 60.945312 -4.433594 C 56.988281 -10.765625 35.617188 -44.007812 31.820312 -50.183594 C 28.652344 -56.355469 28.019531 -62.371094 28.019531 -69.496094 L 28.019531 -124.265625 C 28.019531 -125.535156 27.070312 -126.640625 25.804688 -126.640625 L 2.214844 -126.640625 C 0.949219 -126.640625 0 -125.535156 0 -124.265625 L 0 -2.214844 C 0 -0.949219 0.949219 0 2.214844 0 L 25.804688 0 C 27.070312 0 28.019531 -0.949219 28.019531 -2.214844 L 28.019531 -28.96875 C 28.019531 -30.234375 27.070312 -31.027344 25.804688 -31.027344 C 24.535156 -31.027344 23.429688 -30.234375 23.429688 -28.96875 L 23.429688 -4.433594 L 4.433594 -4.433594 L 4.433594 -122.050781 L 23.429688 -122.050781 L 23.429688 -69.496094 C 23.429688 -62.6875 24.0625 -55.40625 27.859375 -47.964844 C 32.292969 -40.84375 56.988281 -2.53125 57.9375 -0.949219 C 58.253906 -0.316406 59.046875 0 59.839844 0 Z M 85.324219 0 "/></g></g></g><g fill="#5e17eb" fill-opacity="1"><g transform="translate(163.585435, 235.011884)"><g><path d="M 124.109375 -125.691406 C 123.792969 -126.167969 123.160156 -126.640625 122.527344 -126.640625 L 99.890625 -126.640625 C 98.78125 -126.640625 97.671875 -125.691406 97.515625 -124.742188 L 85.800781 -60.3125 L 75.351562 -124.742188 C 75.351562 -126.007812 74.085938 -126.640625 72.820312 -126.640625 C 71.554688 -126.484375 70.917969 -125.21875 70.917969 -123.949219 L 83.425781 -46.539062 C 83.582031 -45.433594 84.535156 -44.640625 85.640625 -44.640625 C 86.75 -44.640625 87.699219 -45.589844 87.859375 -46.539062 L 101.789062 -122.050781 L 119.675781 -122.050781 L 95.296875 -4.433594 L 87.066406 -4.433594 C 83.582031 -4.433594 78.519531 -6.015625 75.511719 -19.3125 L 54.457031 -124.742188 C 54.457031 -125.691406 53.347656 -126.640625 52.238281 -126.640625 C 51.132812 -126.640625 50.183594 -125.851562 50.023438 -124.742188 L 39.257812 -59.996094 L 27.070312 -124.742188 C 26.910156 -125.691406 25.960938 -126.640625 24.851562 -126.640625 L 2.214844 -126.640625 C 1.582031 -126.640625 0.792969 -126.167969 0.476562 -125.691406 C 0 -125.21875 -0.160156 -124.425781 0 -123.792969 L 25.644531 -1.742188 C 25.960938 -0.632812 26.910156 0 27.859375 0 L 38.46875 0 C 46.222656 0 51.132812 -5.699219 53.824219 -18.363281 L 56.988281 -37.199219 C 56.988281 -38.46875 56.355469 -39.734375 55.089844 -39.890625 C 53.824219 -39.890625 52.554688 -39.257812 52.554688 -37.992188 L 49.390625 -19.3125 C 46.539062 -6.171875 41.949219 -4.433594 38.46875 -4.433594 L 29.761719 -4.433594 L 5.066406 -122.050781 L 22.953125 -122.050781 L 37.199219 -46.539062 C 37.359375 -45.589844 38.308594 -44.640625 39.417969 -44.640625 C 40.527344 -44.640625 41.632812 -45.433594 41.792969 -46.539062 L 52.554688 -111.601562 L 71.078125 -18.363281 C 73.769531 -6.332031 78.519531 -0.316406 86.117188 0 L 97.199219 0 C 98.148438 0 99.097656 -0.632812 99.414062 -1.742188 L 124.742188 -123.949219 C 124.742188 -124.585938 124.585938 -125.21875 124.109375 -125.691406 Z M 124.109375 -125.691406 "/></g></g></g></svg>